      <svg
        width="140px"
        height="30px"
        version="1.1"
        viewBox="0 0 3735.9 794.92"
        xmlns="http://www.w3.org/2000/svg"
        xmlns:cc="http://creativecommons.org/ns#"
        xmlns:dc="http://purl.org/dc/elements/1.1/"
        xmlns:rdf="http://www.w3.org/1999/02/22-rdf-syntax-ns#"
      >
        <metadata></metadata>
        <path
          d="m366.56 719.2c-165.2-21.143-278.04-148.28-278.07-313.27-0.014-82.037 29.649-156.29 86-215.27 83.35-87.241 206.64-120.59 330.19-89.3 13.108 3.3194 24.822 5.4234 26.032 4.6756 1.21-0.7478 2.1999-9.2922 2.1999-18.988 0-12.723 0.91386-17.628 3.2841-17.628 4.4182 0 110.88 111.1 113.79 118.75 2.8518 7.5008 2.8986 18.588 0.0973 23.006-1.6039 2.5293-6.6894 0.0659-20.971-10.159-22.566-16.155-51.14-29.804-82.23-39.278-21.29-6.4877-26.078-6.9744-69.841-7.1006-55.229-0.15923-70.882 3.1681-113.02 24.024-93.871 46.465-144.76 155.26-127.11 271.71 13.347 88.024 62.228 155.28 135.98 187.1 77.282 33.341 170.55 26.052 237.79-18.581 9.6016-6.3736 21.506-15.469 26.453-20.211 12.687-12.161 15.131-11.264 15.131 5.5511v14.174l-22.222 22.135c-33.001 32.872-71.99 55.054-120.88 68.773-40.25 11.294-99.515 15.404-142.61 9.8886zm100.32-131.86c-67.684-8.8685-117.49-53.199-137.28-122.18-6.8622-23.924-9.2728-68.961-5.0816-94.941 6.9672-43.189 22.049-74.085 49.805-102.02 32.353-32.567 77.434-48.723 127.04-45.528 78.223 5.039 133.57 53.668 152.22 133.74 6.4137 27.537 5.9126 76.102-1.0612 102.86-16.731 64.189-60.886 110.53-118.34 124.21-20.729 4.934-47.436 6.4675-67.302 3.8645zm40.121-42.036c8.6999-5.6287 15.081-17.71 19.907-37.689 3.3332-13.8 4.5705-33.674 5.4286-87.197 1.56-97.306-3.3904-133.29-20.979-152.48-7.3302-7.9986-10.095-9.3098-19.632-9.3098-21.068 0-31.942 13.542-39.432 49.111-6.2981 29.908-6.2174 163.5 0.11682 193.43 9.1283 43.128 30.029 60.026 54.591 44.134zm1432.9 32.21c-87.73-12.093-138.62-88.301-129.22-193.53 4.3269-48.48 18.68-82.607 46.43-110.39 18.278-18.301 32.146-26.893 57.397-35.563 21.1-7.2443 79.139-6.5926 100.11 1.1241 42.36 15.585 67.519 45.467 80.118 95.157 5.4457 21.477 9.4359 68.193 6.7416 78.928l-1.672 6.662h-87.65c-72.442 0-87.885 0.61191-89.004 3.5264-1.9583 5.1033 3.5221 32.911 9.0089 45.711 19.711 45.985 81.629 59.041 127.62 26.911 7.9635-5.5639 15.464-10.116 16.668-10.116 1.2037 0 5.4081 3.3604 9.343 7.4676l7.1544 7.4676-6.4232 10.945c-16.528 28.164-43.343 49.66-73.989 59.313-20.487 6.4536-52.031 9.2284-72.629 6.389zm55.379-206.98c0.9574-18.606-3.4968-64.51-7.583-78.149-1.6656-5.5592-6.131-13.429-9.9232-17.489-5.7189-6.1221-8.9294-7.3809-18.825-7.3809-20.763 0-29.54 14.437-34.383 56.558-2.8201 24.526-3.1998 58.663-0.6804 61.183 0.9688 0.96889 17.254 1.4451 36.19 1.0582l34.429-0.70339zm757.82 206.74c-46.12-9.4468-74.485-53.952-70.918-111.27 3.9695-63.781 56.43-103.09 131.37-98.447 13.27 0.82263 27.27 2.2121 31.111 3.0877l6.9842 1.592-0.025-16.169c-0.025-21.292-3.6262-33.401-13.2-44.305-25.583-29.138-75.463-26.398-111.64 6.1334l-12.96 11.652-8.513-10.063c-4.6822-5.5348-8.5298-11.214-8.5506-12.621-0.071-4.7515 21.449-28.771 36.824-41.103 30.524-24.482 64.571-35.167 105.36-33.065 40.64 2.0943 67.12 12.993 89.376 36.786 12.284 13.133 19.546 25.413 25.12 42.479 2.4165 7.3995 3.7008 39.476 4.7286 118.1l1.4113 107.94 14.72 1.3096c16.447 1.4633 19.488 4.2306 19.488 17.738 0 15.845 2.1712 15.39-69.941 14.647l-65.844-0.67873-0.7561-15.873c-0.5351-11.23-1.7554-15.873-4.1727-15.873-1.8791 0-4.0442 1.6355-4.8114 3.6343-2.4841 6.4734-26.714 23.799-40.413 28.898-16.369 6.092-40.143 8.4719-54.748 5.4805zm91.059-62.204 7.4929-3.8747v-51.687c0-58.872 0.2412-58.174-20.298-58.477-15.46-0.22781-24.506 5.8952-32.628 22.085-7.2112 14.375-8.8592 49.225-3.2419 68.562 6.7771 23.331 28.555 33.796 48.675 23.391zm-1708.6 59.783c-25.733-5.4912-43.297-18.693-53.389-40.129-3.9827-8.4598-4.5696-22.486-5.7089-136.41l-1.2699-126.98-33.016-2.5397v-23.914l60.777-48.486c56.129-44.778 61.47-48.428 69.841-47.725l9.064 0.76082 1.2699 43.175 1.2698 43.175 13.968 0.65836c25.653 1.2091 25.752 1.2801 24.886 17.834l-0.7593 14.524-38.095 2.5397-1.3174 252.88 6.4813 6.4812c5.5965 5.5966 8.2862 6.364 19.706 5.6226l13.225-0.85862v30.268l-15.238 4.6492c-17.689 5.3969-56.145 7.8015-71.696 4.483zm1433-0.8893c-16.722-4.3644-26.178-9.5774-36.062-19.881-17.507-18.251-17.135-15.125-18.541-155.77l-1.2698-126.98-33.016-2.5397-0.7487-11.442-0.7487-11.442 61.117-49.026c57.492-46.118 61.678-48.979 70.59-48.241l9.473 0.78521 0.6949 43.81 0.6948 43.81h20.425c26.313 0 30.249 2.0937 30.249 16.089 0 5.9572-1.3714 12.203-3.0476 13.879-1.9086 1.9086-11.4 3.0476-25.397 3.0476h-22.349v256.14l6.9234 5.446c5.439 4.2782 9.6597 5.2708 19.682 4.6288l12.759-0.81727 0.7823 12.261c0.4368 6.8475-0.5387 13.852-2.2093 15.865-8.45 10.182-65.54 16.769-90.002 10.385zm-1881.5-3.3784c-0.93123-0.9312-1.6931-7.1767-1.6931-13.879 0-14.179 3.7711-17.444 20.151-17.444h10.326v-269.21h-12.19c-14.995 0-18.286-3.0457-18.286-16.927 0-8.1093 1.2345-11.492 4.9124-13.46 2.9777-1.5936 27.912-2.629 63.311-2.629 69.023 0 66.38-1.0183 66.38 25.578 0 9.678 0.85714 17.531 1.9048 17.452 1.0476-0.0795 6.2645-5.8659 11.593-12.859 22.886-30.033 64.768-42.657 103.43-31.175 26.649 7.9139 44.752 25.271 56.289 53.97 5.624 13.989 5.7949 17.161 7.0667 131.16l1.3032 116.83 13.968 0.65836c25.653 1.2091 25.752 1.2801 24.886 17.834l-0.7593 14.524-70.936 0.67591c-55.058 0.52459-71.393-0.0439-72.977-2.5397-1.1226-1.7686-2.0586-57.369-2.08-123.56-0.0267-82.837-0.94384-123.36-2.9427-130.03-9.2267-30.796-47.404-33.424-60.68-4.178-4.5615 10.049-4.8795 17.742-4.9317 119.31l-0.0558 108.57h11.247c13.605 0 19.229 4.8201 19.229 16.482 0 17.604 5.495 16.534-84.928 16.534-45.015 0-82.607-0.76191-83.538-1.6931zm568.92 0.0345c-0.9503-0.9502-1.7277-7.8011-1.7277-15.224 0-14.771 0.5093-15.19 20.317-16.717l8.8889-0.68556v-266.67l-27.936-2.5397-0.7813-13.728c-0.5272-9.2628 0.2988-14.413 2.5397-15.834 4.926-3.1242 123.29-2.7165 129.2 0.44501 4.7708 2.5532 4.9124 6.9105 4.9124 151.11v148.48l12.064 0.0389c17.064 0.0551 18.843 1.8391 17.924 17.979l-0.7813 13.728-81.447 0.66951c-44.796 0.3682-82.224-0.10794-83.175-1.0582zm192.98-0.0345c-0.9313-0.9312-1.6932-7.1767-1.6932-13.879 0-14.179 3.7712-17.444 20.15-17.444h10.326v-269.21h-12.19c-14.995 0-18.286-3.0457-18.286-16.927 0-8.1093 1.2345-11.492 4.9124-13.46 5.2592-2.8146 116.08-3.7934 123.13-1.0875 3.1901 1.2242 4.0172 5.6378 4.0172 21.437 0 10.943 1.0453 20.542 2.3228 21.331 1.2775 0.78956 4.731-2.4611 7.6745-7.2237 26.017-42.096 88.973-54.972 132.76-27.152 14.106 8.9635 25.039 23.217 33.004 43.031 5.624 13.989 5.7949 17.161 7.0666 131.16l1.3033 116.83 13.968 0.65836c25.652 1.2091 25.752 1.2801 24.886 17.834l-0.7593 14.524-70.936 0.67591c-55.058 0.52459-71.393-0.0439-72.977-2.5397-1.1226-1.7686-2.0837-58.073-2.1358-125.12-0.088-112.8-0.4432-122.66-4.7596-132.06-6.3883-13.912-13.387-19.45-26.232-20.757-14.777-1.5035-26.036 5.754-33.292 21.46-5.4172 11.727-5.5415 14.389-5.5415 118.66v106.67l8.8889 0.68556c20.126 1.5523 20.318 1.7257 20.318 18.41v15.19h-82.116c-45.164 0-82.878-0.76191-83.81-1.6931zm675.56 0c-0.9312-0.9312-1.6931-7.1767-1.6931-13.879 0-14.179 3.7711-17.444 20.15-17.444h10.326v-269.21h-12.19c-14.995 0-18.286-3.0457-18.286-16.927 0-8.1093 1.2345-11.492 4.9124-13.46 5.2592-2.8146 116.08-3.7934 123.13-1.0875 3.1937 1.2255 4.0173 5.651 4.0173 21.587 0 16.125 0.745 20.046 3.8095 20.046 2.0952 0 3.8095-1.0192 3.8095-2.265 0-1.2457 5.2174-8.0679 11.594-15.16 38.913-43.28 113.64-40.396 145.03 5.5984 16.755 24.546 16.963 26.282 18.495 154.05l1.3856 115.56 13.968 0.65836c25.653 1.2091 25.752 1.2801 24.886 17.834l-0.7593 14.524h-144.76l-1.2698-126.98c-1.1601-116-1.6649-127.71-5.8376-135.35-11.138-20.401-36.389-24.033-51.61-7.4243-12.837 14.008-13.821 24.276-13.067 136.43l0.6739 100.32 8.8889 0.68556c20.126 1.5523 20.317 1.7257 20.317 18.41v15.19h-82.116c-45.164 0-82.878-0.76191-83.81-1.6931zm904.35-210.97-0.6494-212.74-16.442-0.77087c-18.095-0.84838-20.306-2.5616-20.306-15.737 0-15.884-2.5122-15.385 73.749-14.645l69.666 0.67657 0.6494 211.43 0.6496 211.43h16.008c21.369 0 25.144 2.9936 24.124 19.132l-0.7964 12.614-146 1.3477zm185.1 208.85c-0.804-2.0952-0.804-5.5238 0-7.619 1.2854-3.3496 30.864-3.8095 245-3.8095h243.54v15.238h-243.54c-214.14 0-243.71-0.45994-245-3.8095zm271.06-30.445c-1.7298-4.5074 10.544-26.388 15.97-28.47 5.3704-2.0608 38.972-44.343 38.972-49.04 0-2.1352-12.08-15.862-26.845-30.504-29.764-29.515-32.098-32.939-36.751-53.907l-3.2368-14.587-28.171-18.918c-38.051-25.553-39.998-27.336-58.097-53.203-13.198-18.864-19.406-25.061-37.836-37.776l-22.047-15.21-9.0639 5.6018c-8.8998 5.5004-9.0639 5.9028-9.0639 22.243 0 9.1526 1.3344 21.095 2.9654 26.538 2.7598 9.2113 2.4515 10.626-4.4445 20.411-9.4987 13.477-12.538 14.294-17.5 4.6981-4.2035-8.1284-5.5551-25.841-4.4983-58.941l0.6207-19.444 34.89-37.246 17.656 5.6865c9.7107 3.1276 20.195 5.6865 23.298 5.6865 9.7951 0 32.69-19.367 45.283-38.305 7.119-10.706 10.866-18.642 9.4588-20.03-1.3928-1.3732-9.488-0.78693-20.109 1.4564-20.274 4.2823-28.135 2.3465-30.617-7.5395-3.4748-13.845-0.803-17.283 29.347-37.77 38.323-26.04 38.481-26.184 36.707-33.253-0.9483-3.7788 0-7.1071 2.6176-9.2881 3.5723-2.9649 6.1301-1.3139 20.025 12.927 8.7612 8.9792 19.278 22.022 23.369 28.984 6.9532 11.83 7.4078 14.237 6.9496 36.785-0.3279 16.15-2.6263 32.462-6.9514 49.336l-6.4612 25.209 10.567 14.156c29.538 39.571 42.626 53.033 62.956 64.759 11.069 6.3845 23.997 15.595 28.729 20.467 19.019 19.584 19.136 48.944 0.3078 77.396l-6.9816 10.55 6.7815 23.478c3.7295 12.913 6.7786 25.134 6.7753 27.159 0 2.0242-10.841 15.68-24.085 30.347-16.205 17.946-25.069 29.989-27.106 36.825-4.6494 15.608-6.0335 16.508-25.385 16.508-13.189 0-17.907-0.93819-18.996-3.7782zm-56.804-27.976c0-2.0999 5.5355-9.2427 12.301-15.873 23.774-23.299 60.88-56.5 63.144-56.5 1.2587 0 5.9853 3.814 10.503 8.4755l8.2148 8.4755-10.891 9.9565c-5.9901 5.4761-16.47 14.494-23.289 20.041-6.8188 5.5463-15.119 14.395-18.445 19.663l-6.047 9.579h-17.746c-14.098 0-17.746-0.78474-17.746-3.818zm201.7-44.455c-21.721-12.666-21.323-11.655-25.11-63.867-2.2745-31.355-4.8124-50.154-7.7613-57.489-2.4099-5.9945-3.622-11.659-2.6935-12.587 2.2887-2.2889 17.504 6.1478 28.293 15.688 7.2043 6.3708 9.7257 11.413 13.779 27.558 5.5875 22.253 13.894 89.147 11.761 94.707-1.9055 4.9659-3.461 4.6245-18.268-4.0097zm-385.82-222.18c-1.3968-0.46595-5.6825-1.5404-9.5238-2.3876-8.8533-1.9526-8.8533-6.3607 0-14.657 9.6716-9.0634 23.875-15.722 47.013-22.039 23.341-6.373 22.194-6.2737 22.194-1.9198 0 3.4257-15.052 18.03-35.041 33.998-9.2178 7.3639-16.965 9.5665-24.642 7.0058zm-1933.4-48.199c-23.14-7.2256-36.119-23.636-36.119-45.666 0-14.224 4.4184-23.455 16.16-33.765 12.086-10.611 24.724-14.381 48.602-14.494 17.298-0.0822 22.507 0.97681 35.05 7.126 40.733 19.969 37.943 69.327-4.8225 85.327-16.179 6.0532-42.122 6.7018-58.871 1.4719z"
          fill="#ffa500"
          stroke-width="2.5397"
        />
      </svg>